# Blender v2.77 (sub 0) OBJ File: '02.blend'
# www.blender.org
mtllib 02.mtl
o Cube.001_Cube.002
v -0.351754 0.376619 0.351754
v -0.351754 0.376619 -0.351754
v 0.351754 0.376619 -0.351754
v 0.351754 0.376619 0.351754
v -0.394022 0.361842 0.394022
v -0.394022 0.361842 -0.394022
v 0.394022 0.361842 -0.394022
v 0.394022 0.361842 0.394022
v -0.373658 0.277227 0.318658
v -0.373658 0.306842 0.318658
v 0.318658 0.306842 0.373658
v 0.318658 0.306842 -0.373658
v -0.373658 0.306842 -0.318658
v -0.373658 0.277227 -0.318658
v 0.318658 0.277227 -0.373658
v 0.318658 0.277227 0.373658
v -0.318658 0.277227 0.373658
v -0.318658 0.306842 0.373658
v -0.318658 0.306842 -0.373658
v -0.318658 0.277227 -0.373658
v 0.373658 0.306842 -0.318658
v -0.373658 0.361842 -0.373658
v -0.373658 0.222227 -0.373658
v 0.373658 0.277227 -0.318658
v -0.373658 0.222227 0.373658
v -0.373658 0.361842 0.373658
v 0.373658 0.306842 0.318658
v 0.373658 0.277227 0.318658
v 0.373658 0.361842 0.373658
v 0.373658 0.361842 -0.373658
v 0.373658 0.222227 -0.373658
v 0.373658 0.222227 0.373658
v -0.336292 0.277227 0.318658
v -0.336292 0.306842 0.318658
v -0.336292 0.306842 -0.318658
v -0.336292 0.277227 -0.318658
v 0.318658 0.306842 -0.336292
v -0.318658 0.306842 -0.336292
v -0.318658 0.277227 -0.336292
v 0.318658 0.277227 -0.336292
v -0.318658 0.277227 0.336292
v -0.318658 0.306842 0.336292
v 0.318658 0.306842 0.336292
v 0.318658 0.277227 0.336292
v 0.336292 0.306842 0.318658
v 0.336292 0.306842 -0.318658
v 0.336292 0.277227 -0.318658
v 0.336292 0.277227 0.318658
v -0.394022 0.388362 0.394022
v -0.388362 0.394022 0.388362
v -0.392364 0.392364 0.392364
v -0.388362 0.394022 -0.388362
v -0.394022 0.388362 -0.394022
v -0.392364 0.392364 -0.392364
v 0.388362 0.394022 -0.388362
v 0.394022 0.388362 -0.394022
v 0.392364 0.392364 -0.392364
v 0.388362 0.394022 0.388362
v 0.394022 0.388362 0.394022
v 0.392364 0.392364 0.392364
v -0.368488 0.394022 0.368488
v -0.362483 0.391009 0.362483
v -0.365172 0.393140 0.365172
v -0.362483 0.391009 -0.362483
v -0.368488 0.394022 -0.368488
v -0.365172 0.393140 -0.365172
v 0.362483 0.391009 0.362483
v 0.368488 0.394022 0.368488
v 0.365172 0.393140 0.365172
v 0.362483 0.391009 -0.362483
v 0.368488 0.394022 -0.368488
v 0.365172 0.393140 -0.365172
v -0.394022 0.217976 -0.394022
v -0.389771 0.222227 -0.389771
v -0.392777 0.220982 -0.392777
v 0.394022 0.217976 -0.394022
v 0.389771 0.222227 -0.389771
v 0.392777 0.220982 -0.392777
v 0.394022 0.217976 0.394022
v 0.389771 0.222227 0.389771
v 0.392777 0.220982 0.392777
v -0.389771 0.222227 0.389771
v -0.394022 0.217976 0.394022
v -0.392777 0.220982 0.392777
v -0.394022 -0.394022 -0.328352
v -0.394022 -0.394022 0.328352
v 0.328352 -0.394022 -0.394022
v -0.328352 -0.394022 -0.394022
v 0.394022 -0.394022 0.328352
v 0.394022 -0.394022 -0.328352
v -0.328352 -0.394022 0.394022
v 0.328352 -0.394022 0.394022
v -0.328352 0.217976 0.394022
v 0.328352 0.217976 0.394022
v 0.394022 0.217976 0.328352
v 0.394022 0.217976 -0.328352
v 0.328352 0.217976 -0.394022
v -0.328352 0.217976 -0.394022
v -0.394022 0.217976 -0.328352
v -0.394022 0.217976 0.328352
v -0.402008 -0.394022 0.335007
v -0.402008 -0.394022 0.402008
v -0.335007 -0.394022 -0.402008
v -0.402008 -0.394022 -0.402008
v 0.402008 -0.394022 -0.335007
v 0.402008 -0.394022 -0.402008
v 0.335007 -0.394022 0.402008
v 0.402008 -0.394022 0.402008
v 0.335007 0.217976 0.402008
v 0.402008 0.217976 0.402008
v 0.402008 0.217976 -0.335007
v 0.402008 0.217976 -0.402008
v -0.335007 0.217976 -0.402008
v -0.402008 0.217976 -0.402008
v -0.402008 0.217976 0.335007
v -0.402008 0.217976 0.402008
v -0.402008 -0.394022 -0.335007
v 0.335007 -0.394022 -0.402008
v 0.402008 -0.394022 0.335007
v -0.335007 -0.394022 0.402008
v -0.335007 0.217976 0.402008
v 0.402008 0.217976 0.335007
v 0.335007 0.217976 -0.402008
v -0.402008 0.217976 -0.335007
vt 0.583986 0.023108
vt 0.564503 0.313985
vt 0.564503 0.000000
vt 0.852860 0.661147
vt 0.862255 0.992243
vt 0.852860 0.992243
vt 0.842006 0.661147
vt 0.851401 0.992243
vt 0.842006 0.992243
vt 0.270462 0.668904
vt 0.279857 1.000000
vt 0.270462 1.000000
vt 0.682903 0.023108
vt 0.663419 0.313985
vt 0.663419 0.000000
vt 0.294009 0.649722
vt 0.286951 0.658072
vt 0.294009 0.340082
vt 0.627448 0.313985
vt 0.616957 0.329684
vt 0.616957 0.313985
vt 0.900067 0.267768
vt 0.886797 0.000000
vt 0.900067 0.000000
vt 0.846988 0.000000
vt 0.860258 0.267768
vt 0.846988 0.267768
vt 0.606466 0.313985
vt 0.595975 0.329684
vt 0.595975 0.313985
vt 0.555730 0.340082
vt 0.286951 0.331732
vt 0.562788 0.331732
vt 0.742852 0.290876
vt 0.762336 0.313985
vt 0.732361 0.290876
vt 0.643936 0.023108
vt 0.663419 0.000000
vt 0.663419 0.313985
vt 0.633445 0.290876
vt 0.613961 0.000000
vt 0.633445 0.023108
vt 0.732361 0.023108
vt 0.712878 0.313985
vt 0.712878 0.000000
vt 0.585485 0.329684
vt 0.595975 0.313985
vt 0.595975 0.329684
vt 0.888795 0.661147
vt 0.902064 0.928915
vt 0.888795 0.928915
vt 0.564503 0.329684
vt 0.574994 0.313985
vt 0.574994 0.329684
vt 0.846988 0.267768
vt 0.833718 0.000000
vt 0.846988 0.000000
vt 0.648430 0.313985
vt 0.637939 0.329684
vt 0.637939 0.313985
vt 0.585485 0.313985
vt 0.574994 0.329684
vt 0.574994 0.313985
vt 0.875525 0.661147
vt 0.888795 0.928915
vt 0.875525 0.928915
vt 0.627448 0.329684
vt 0.637939 0.313985
vt 0.637939 0.329684
vt 0.873527 0.267768
vt 0.860258 0.000000
vt 0.873527 0.000000
vt 0.606466 0.329684
vt 0.616957 0.313985
vt 0.616957 0.329684
vt 0.862255 0.661147
vt 0.875525 0.928915
vt 0.862255 0.928915
vt 0.886797 0.267768
vt 0.873527 0.000000
vt 0.886797 0.000000
vt 0.562788 0.658072
vt 0.285530 0.659754
vt 0.269003 0.669600
vt 0.269003 0.999304
vt 0.564209 0.659754
vt 0.851401 0.661843
vt 0.851401 0.991547
vt 0.564209 0.330050
vt 0.840547 0.661843
vt 0.840547 0.991547
vt 0.285530 0.330050
vt 0.840547 0.991547
vt 0.839088 0.661147
vt 0.839088 0.992243
vt 0.829693 0.661147
vt 0.553598 0.647199
vt 0.295186 0.648329
vt 0.296141 0.647199
vt 0.554553 0.648329
vt 0.553598 0.342605
vt 0.554553 0.341475
vt 0.555730 0.649722
vt 0.296141 0.342605
vt 0.295186 0.341475
vt 0.565305 0.357642
vt 0.564209 0.660624
vt 0.564209 0.330573
vt 0.285530 0.000000
vt 0.286597 0.328787
vt 0.285530 0.330050
vt 0.998904 0.357642
vt 1.000000 0.330573
vt 1.000000 0.660624
vt 0.564503 0.000000
vt 0.286597 0.001263
vt 0.781009 0.688738
vt 0.782105 0.661670
vt 0.782105 0.991720
vt 0.564503 0.330050
vt 0.563435 0.001263
vt 0.216799 0.972409
vt 0.217895 0.669427
vt 0.217895 0.999477
vt 0.563435 0.328787
vt 0.785657 0.284085
vt 0.764699 0.287440
vt 0.762336 0.284085
vt 0.693394 0.290876
vt 0.712878 0.313985
vt 0.682903 0.290876
vt 0.561373 0.943838
vt 0.564209 0.919043
vt 0.564209 0.947194
vt 0.594477 0.290876
vt 0.613961 0.313985
vt 0.583986 0.290876
vt 0.000000 0.696495
vt 0.000000 0.972409
vt 0.564209 0.688738
vt 0.781009 0.964652
vt 0.564209 0.964652
vt 0.782105 0.357642
vt 0.998904 0.633555
vt 0.782105 0.633555
vt 0.782105 0.633555
vt 0.782105 0.357642
vt 0.805899 0.661147
vt 0.782105 0.917640
vt 0.782105 0.661147
vt 0.241689 0.925397
vt 0.265484 0.668904
vt 0.265484 0.925397
vt 0.805899 0.917640
vt 0.829693 0.661147
vt 0.829693 0.917640
vt 0.809924 0.256493
vt 0.833718 0.000000
vt 0.833718 0.256493
vt 0.786130 0.000000
vt 0.762336 0.256493
vt 0.762336 0.000000
vt 0.809924 0.000000
vt 0.786130 0.256493
vt 0.786130 0.000000
vt 0.217895 0.925397
vt 0.241689 0.668904
vt 0.241689 0.925397
vt 0.540415 0.916247
vt 0.564209 0.659754
vt 0.564209 0.916247
vt 0.785657 0.315031
vt 0.788493 0.290236
vt 0.788493 0.318387
vt 0.805426 0.945231
vt 0.808262 0.920436
vt 0.808262 0.948587
vt 0.259372 0.003355
vt 0.282693 0.306860
vt 0.259372 0.334452
vt 0.613961 0.000000
vt 0.594477 0.023108
vt 0.862255 0.661147
vt 0.851401 0.661147
vt 0.279857 0.668904
vt 0.712878 0.000000
vt 0.693394 0.023108
vt 0.627448 0.329684
vt 0.886797 0.267768
vt 0.860258 0.000000
vt 0.606466 0.329684
vt 0.742852 0.023108
vt 0.762336 0.000000
vt 0.613961 0.313985
vt 0.643936 0.290876
vt 0.585485 0.313985
vt 0.902064 0.661147
vt 0.564503 0.313985
vt 0.833718 0.267768
vt 0.648430 0.329684
vt 0.585485 0.329684
vt 0.888795 0.661147
vt 0.627448 0.313985
vt 0.860258 0.267768
vt 0.606466 0.313985
vt 0.875525 0.661147
vt 0.873527 0.267768
vt 0.829693 0.992243
vt 0.565305 0.330050
vt 0.565305 0.633555
vt 0.565305 0.661147
vt 0.998904 0.661147
vt 0.998904 0.330050
vt 0.781009 0.992243
vt 0.781009 0.661147
vt 0.216799 1.000000
vt 0.216799 0.696495
vt 0.216799 0.668904
vt 0.785657 0.256493
vt 0.788493 0.259289
vt 0.788493 0.287440
vt 0.540415 0.947194
vt 0.538052 0.943838
vt 0.561373 0.916247
vt 0.805899 0.917640
vt 0.241689 0.668904
vt 0.805899 0.661147
vt 0.809924 0.000000
vt 0.786130 0.256493
vt 0.809924 0.256493
vt 0.217895 0.668904
vt 0.540415 0.659754
vt 0.764699 0.318387
vt 0.762336 0.315031
vt 0.785657 0.287440
vt 0.784468 0.948587
vt 0.782105 0.945231
vt 0.805426 0.917640
vt 0.000000 0.028151
vt 0.000000 0.000000
vt 0.023794 0.000000
vt 0.002836 0.030947
vt 0.026158 0.003355
vt 0.261735 0.000000
vt 0.285530 0.028151
vt 0.000000 0.337807
vt 0.000000 0.309657
vt 0.023794 0.337807
vt 0.002836 0.306860
vt 0.285529 0.000000
vt 0.282693 0.030947
vt 0.026158 0.334452
vt 0.285529 0.337807
vt 0.261735 0.337807
vt 0.285529 0.309657
vt 0.007232 0.346363
vt 0.000000 0.337807
vt 0.279857 0.337807
vt 0.280164 0.642401
vt 0.285529 0.942488
vt 0.280164 0.946995
vt 0.921049 0.000000
vt 0.926414 0.300087
vt 0.921049 0.304594
vt 0.292319 0.322017
vt 0.928412 0.965741
vt 0.923046 0.665654
vt 0.928412 0.661147
vt 0.000000 0.668904
vt 0.007232 0.660348
vt 0.279857 0.668904
vt 0.912555 0.928915
vt 0.902064 0.661147
vt 0.912555 0.661147
vt 0.910558 0.000000
vt 0.921049 0.267768
vt 0.910558 0.267768
vt 0.900067 0.000000
vt 0.910558 0.267768
vt 0.900067 0.267768
vt 0.912555 0.661147
vt 0.923046 0.928915
vt 0.912555 0.928915
vt 0.557713 0.008033
vt 0.280164 0.337807
vt 0.285529 0.637894
vt 0.272625 0.346363
vt 0.272625 0.660348
vt 0.285529 0.646909
vt 0.926414 0.004508
vt 0.292319 0.008033
vt 0.557713 0.322017
vt 0.923046 0.961233
vt 0.902064 0.928915
vt 0.921049 0.000000
vt 0.910558 0.000000
vt 0.923046 0.661147
vt 0.285529 0.342315
vt 0.535366 0.659754
vt 0.285530 0.955333
vt 0.285530 0.659754
vt 0.535366 0.955333
vt 0.929250 0.000197
vt 0.932087 0.256493
vt 0.929250 0.256690
vt 0.268320 0.925397
vt 0.265484 0.669100
vt 0.268320 0.668904
vt 0.934084 0.917640
vt 0.936920 0.661344
vt 0.936920 0.917837
vt 0.926414 0.256493
vt 0.929250 0.000197
vt 0.929250 0.256690
vt 0.934084 0.917640
vt 0.931248 0.661344
vt 0.934084 0.661147
vt 0.928412 0.661147
vt 0.931248 0.917837
vt 0.928412 0.917640
vt 0.937759 0.256690
vt 0.934923 0.000000
vt 0.937759 0.000197
vt 0.934923 0.256493
vt 0.932087 0.000197
vt 0.934923 0.000000
vt 0.932087 0.000000
vt 0.265484 0.925594
vt 0.934084 0.661147
vt 0.926414 0.000000
vt 0.931248 0.917837
vt 0.931248 0.661344
vt 0.934923 0.256493
vt 0.932087 0.256690
vn 1.000000 0.000000 0.000000
vn 0.000000 0.000000 -1.000000
vn -1.000000 0.000000 0.000000
vn 0.000000 1.000000 0.000000
vn 0.000000 -1.000000 0.000000
vn -0.000000 0.000000 1.000000
vn -0.382700 0.923900 0.000000
vn -0.923900 0.382700 0.000000
vn 0.000000 0.923900 -0.382700
vn 0.000000 0.382700 -0.923900
vn 0.382700 0.923900 0.000000
vn 0.923900 0.382700 0.000000
vn 0.000000 0.923900 0.382700
vn 0.000000 0.382700 0.923900
vn 0.621000 0.783800 0.000000
vn 0.257200 0.966400 0.000000
vn 0.000000 0.783800 0.621000
vn 0.000000 0.966400 0.257200
vn -0.621000 0.783800 0.000000
vn -0.257200 0.966400 0.000000
vn 0.000000 0.783800 -0.621000
vn 0.000000 0.966400 -0.257200
vn 0.000000 0.966300 0.257200
vn 0.000000 0.966300 -0.257200
vn 0.801700 0.597700 0.000000
vn 0.000000 0.597700 0.801700
vn -0.801700 0.597700 0.000000
vn 0.000000 0.597700 -0.801700
vn -0.768200 0.000000 -0.640200
vn 0.768200 0.000000 0.640200
vn -0.640200 0.000000 -0.768200
vn 0.640200 0.000000 0.768200
vn 0.640200 0.000000 -0.768200
vn -0.768200 0.000000 0.640200
vn 0.768200 0.000000 -0.640200
vn -0.640200 0.000000 0.768200
usemtl Material.008
s off
f 27/1/1 30/2/1 29/3/1
f 56/4/2 6/5/2 53/6/2
f 59/7/1 7/8/1 56/9/1
f 53/10/3 5/11/3 49/12/3
f 12/13/2 22/14/2 30/15/2
f 61/16/4 50/17/4 68/18/4
f 17/19/1 42/20/1 18/21/1
f 13/22/5 34/23/5 10/24/5
f 12/25/5 38/26/5 19/27/5
f 10/28/2 33/29/2 9/30/2
f 71/31/4 58/32/4 55/33/4
f 9/34/3 25/35/3 10/36/3
f 17/37/6 25/38/6 32/39/6
f 11/40/6 26/41/6 18/42/6
f 13/43/3 26/44/3 22/45/3
f 19/46/1 39/47/1 20/48/1
f 27/49/5 46/50/5 21/51/5
f 14/52/6 35/53/6 13/54/6
f 18/55/5 43/56/5 11/57/5
f 15/58/3 37/59/3 12/60/3
f 21/61/6 47/62/6 24/63/6
f 9/64/4 36/65/4 14/66/4
f 11/67/3 44/68/3 16/69/3
f 20/70/4 40/71/4 15/72/4
f 28/73/2 45/74/2 27/75/2
f 16/76/4 41/77/4 17/78/4
f 24/79/4 48/80/4 28/81/4
f 52/82/7 51/83/7 50/17/7
f 54/84/8 49/12/8 51/85/8
f 55/33/9 54/86/9 52/82/9
f 57/87/10 53/6/10 54/88/10
f 58/32/11 57/89/11 55/33/11
f 60/90/12 56/9/12 57/91/12
f 50/17/13 60/92/13 58/32/13
f 51/93/14 59/94/14 60/90/14
f 49/95/6 8/96/6 59/94/6
f 64/97/15 63/98/15 62/99/15
f 66/100/16 61/16/16 63/98/16
f 70/101/17 66/100/17 64/97/17
f 72/102/18 65/103/18 66/100/18
f 67/104/19 72/102/19 70/101/19
f 69/105/20 71/31/20 72/102/20
f 62/99/21 69/105/21 67/104/21
f 63/98/22 68/18/22 69/105/22
f 93/106/14 81/107/14 84/108/14
f 81/109/13 82/110/13 84/111/13
f 96/112/12 78/113/12 81/114/12
f 78/115/11 80/116/11 81/109/11
f 98/117/10 75/118/10 78/119/10
f 75/120/9 77/121/9 78/115/9
f 99/122/8 84/123/8 75/124/8
f 84/111/7 74/125/7 75/120/7
f 79/126/4 122/127/4 95/128/4
f 20/129/2 23/130/2 19/131/2
f 83/132/4 115/133/4 116/134/4
f 24/135/1 31/136/1 21/137/1
f 86/138/3 99/122/3 85/139/3
f 88/140/2 97/141/2 87/142/2
f 90/143/1 95/144/1 89/145/1
f 92/146/6 93/106/6 91/147/6
f 117/148/3 114/149/3 104/150/3
f 104/151/2 113/152/2 103/153/2
f 118/154/2 112/155/2 106/156/2
f 106/157/1 111/158/1 105/159/1
f 119/160/1 110/161/1 108/162/1
f 102/163/3 115/164/3 101/165/3
f 108/166/6 109/167/6 107/168/6
f 120/169/6 116/170/6 102/171/6
f 73/172/4 113/173/4 114/174/4
f 76/175/4 111/176/4 112/177/4
f 89/178/5 91/179/5 86/180/5
f 32/181/1 28/182/1 27/1/1
f 27/1/1 21/137/1 30/2/1
f 29/3/1 32/181/1 27/1/1
f 56/4/2 7/183/2 6/5/2
f 59/7/1 8/184/1 7/8/1
f 53/10/3 6/185/3 5/11/3
f 31/186/2 15/187/2 12/13/2
f 12/13/2 19/131/2 22/14/2
f 30/15/2 31/186/2 12/13/2
f 61/16/4 65/103/4 52/82/4
f 50/17/4 58/32/4 68/18/4
f 61/16/4 52/82/4 50/17/4
f 17/19/1 41/188/1 42/20/1
f 13/22/5 35/189/5 34/23/5
f 12/25/5 37/190/5 38/26/5
f 10/28/2 34/191/2 33/29/2
f 52/82/4 65/103/4 71/31/4
f 71/31/4 68/18/4 58/32/4
f 55/33/4 52/82/4 71/31/4
f 9/34/3 14/192/3 23/193/3
f 25/35/3 26/44/3 10/36/3
f 9/34/3 23/193/3 25/35/3
f 17/37/6 18/42/6 26/41/6
f 32/39/6 29/194/6 11/40/6
f 32/39/6 11/40/6 16/195/6
f 17/37/6 26/41/6 25/38/6
f 32/39/6 16/195/6 17/37/6
f 11/40/6 29/194/6 26/41/6
f 23/193/3 14/192/3 13/43/3
f 13/43/3 10/36/3 26/44/3
f 22/45/3 23/193/3 13/43/3
f 19/46/1 38/196/1 39/47/1
f 27/49/5 45/197/5 46/50/5
f 14/52/6 36/198/6 35/53/6
f 18/55/5 42/199/5 43/56/5
f 15/58/3 40/200/3 37/59/3
f 21/61/6 46/201/6 47/62/6
f 9/64/4 33/202/4 36/65/4
f 11/67/3 43/203/3 44/68/3
f 20/70/4 39/204/4 40/71/4
f 28/73/2 48/205/2 45/74/2
f 16/76/4 44/206/4 41/77/4
f 24/79/4 47/207/4 48/80/4
f 52/82/7 54/86/7 51/83/7
f 54/84/8 53/10/8 49/12/8
f 55/33/9 57/89/9 54/86/9
f 57/87/10 56/4/10 53/6/10
f 58/32/11 60/92/11 57/89/11
f 60/90/12 59/7/12 56/9/12
f 50/17/13 51/83/13 60/92/13
f 51/93/14 49/95/14 59/94/14
f 49/95/6 5/208/6 8/96/6
f 64/97/15 66/100/15 63/98/15
f 66/100/16 65/103/16 61/16/16
f 70/101/17 72/102/17 66/100/17
f 72/102/23 71/31/23 65/103/23
f 67/104/19 69/105/19 72/102/19
f 69/105/20 68/18/20 71/31/20
f 62/99/21 63/98/21 69/105/21
f 63/98/24 61/16/24 68/18/24
f 84/108/14 83/209/14 93/106/14
f 93/106/14 94/210/14 81/107/14
f 79/211/14 81/107/14 94/210/14
f 81/109/13 80/116/13 82/110/13
f 81/114/12 79/212/12 95/144/12
f 96/112/12 76/213/12 78/113/12
f 81/114/12 95/144/12 96/112/12
f 78/115/11 77/121/11 80/116/11
f 78/119/10 76/214/10 97/141/10
f 98/117/10 73/215/10 75/118/10
f 78/119/10 97/141/10 98/117/10
f 75/120/9 74/125/9 77/121/9
f 75/124/8 73/216/8 99/122/8
f 99/122/8 100/217/8 84/123/8
f 83/218/8 84/123/8 100/217/8
f 84/111/7 82/110/7 74/125/7
f 79/126/4 94/219/4 109/220/4
f 110/221/4 122/127/4 79/126/4
f 79/126/4 109/220/4 110/221/4
f 20/129/2 15/187/2 31/186/2
f 23/130/2 22/14/2 19/131/2
f 20/129/2 31/186/2 23/130/2
f 121/222/4 93/223/4 83/132/4
f 83/132/4 100/224/4 115/133/4
f 116/134/4 121/222/4 83/132/4
f 24/135/1 28/182/1 32/181/1
f 31/136/1 30/2/1 21/137/1
f 24/135/1 32/181/1 31/136/1
f 86/138/3 100/217/3 99/122/3
f 88/140/2 98/117/2 97/141/2
f 90/143/1 96/112/1 95/144/1
f 92/146/6 94/210/6 93/106/6
f 117/148/3 124/225/3 114/149/3
f 104/151/2 114/226/2 113/152/2
f 118/154/2 123/227/2 112/155/2
f 106/157/1 112/228/1 111/158/1
f 119/160/1 122/229/1 110/161/1
f 102/163/3 116/230/3 115/164/3
f 108/166/6 110/231/6 109/167/6
f 120/169/6 121/232/6 116/170/6
f 124/233/4 99/234/4 73/172/4
f 73/172/4 98/235/4 113/173/4
f 114/174/4 124/233/4 73/172/4
f 123/236/4 97/237/4 76/175/4
f 76/175/4 96/238/4 111/176/4
f 112/177/4 123/236/4 76/175/4
f 118/239/5 106/240/5 105/241/5
f 118/239/5 105/241/5 87/242/5
f 87/242/5 105/241/5 90/243/5
f 89/178/5 119/244/5 107/245/5
f 87/242/5 90/243/5 89/178/5
f 104/246/5 103/247/5 117/248/5
f 88/249/5 87/242/5 89/178/5
f 119/244/5 108/250/5 107/245/5
f 89/178/5 107/245/5 92/251/5
f 103/247/5 88/249/5 117/248/5
f 85/252/5 117/248/5 88/249/5
f 102/253/5 101/254/5 120/255/5
f 85/252/5 88/249/5 89/178/5
f 120/255/5 101/254/5 86/180/5
f 86/180/5 85/252/5 89/178/5
f 89/178/5 92/251/5 91/179/5
f 91/179/5 120/255/5 86/180/5
usemtl Material.002
f 30/256/5 7/257/5 8/258/5
f 62/259/25 2/260/25 64/261/25
f 64/262/26 3/263/26 70/264/26
f 82/110/4 80/116/4 25/265/4
f 70/266/27 4/267/27 67/268/27
f 6/269/5 22/270/5 5/271/5
f 42/272/6 44/273/6 43/274/6
f 45/275/1 47/276/1 46/277/1
f 37/278/2 39/279/2 38/280/2
f 35/281/3 33/282/3 34/283/3
f 74/125/4 31/284/4 77/121/4
f 67/285/28 1/286/28 62/259/28
f 8/258/5 5/271/5 29/287/5
f 5/271/5 26/288/5 29/287/5
f 30/256/5 6/269/5 7/257/5
f 8/258/5 29/287/5 30/256/5
f 62/259/25 1/289/25 2/260/25
f 64/262/26 2/290/26 3/263/26
f 80/116/4 77/121/4 32/291/4
f 25/265/4 23/292/4 82/110/4
f 80/116/4 32/291/4 25/265/4
f 70/266/27 3/293/27 4/267/27
f 6/269/5 30/256/5 22/270/5
f 22/270/5 26/288/5 5/271/5
f 42/272/6 41/294/6 44/273/6
f 45/275/1 48/295/1 47/276/1
f 37/278/2 40/296/2 39/279/2
f 35/281/3 36/297/3 33/282/3
f 74/125/4 82/110/4 23/292/4
f 31/284/4 32/291/4 77/121/4
f 74/125/4 23/292/4 31/284/4
f 67/285/28 4/298/28 1/286/28
usemtl Material.010
f 3/299/4 1/300/4 4/301/4
f 3/299/4 2/302/4 1/300/4
usemtl Material.006
f 97/303/29 118/304/29 87/305/29
f 93/306/30 120/307/30 91/308/30
f 101/309/31 100/310/31 86/311/31
f 105/312/32 96/313/32 90/314/32
f 95/315/33 119/316/33 89/317/33
f 92/318/34 109/319/34 94/320/34
f 88/321/35 113/322/35 98/323/35
f 99/324/36 117/325/36 85/326/36
f 97/303/29 123/327/29 118/304/29
f 93/306/30 121/328/30 120/307/30
f 101/309/31 115/329/31 100/310/31
f 105/312/32 111/330/32 96/313/32
f 95/315/33 122/331/33 119/316/33
f 92/318/34 107/332/34 109/319/34
f 88/321/35 103/333/35 113/322/35
f 99/324/36 124/334/36 117/325/36
