# Blender v2.76 (sub 0) OBJ File: '05-WithOutput.blend'
# www.blender.org
o Cube.001_Cube.001_Cube.001_Cube.003
v -0.585047 0.052614 0.006909
v -0.585047 -0.052614 0.006909
v -0.585047 -0.006909 -0.052614
v -0.585047 0.052614 -0.006909
v -0.432379 0.052614 0.006909
v -0.432379 0.052614 -0.006909
v -0.432379 -0.006909 -0.052614
v -0.432379 -0.052614 0.006909
v -0.585047 0.006909 0.052614
v -0.585047 0.006909 -0.052614
v -0.432379 0.006909 0.052614
v -0.432379 0.006909 -0.052614
v -0.585047 -0.052614 -0.006909
v -0.605047 0.052614 -0.052614
v -0.432379 -0.052614 -0.006909
v -0.412379 0.052614 -0.052614
v -0.585047 -0.006909 0.052614
v -0.605047 -0.052614 -0.052614
v -0.432379 -0.006909 0.052614
v -0.412379 -0.052614 -0.052614
v -0.605047 0.052614 0.052614
v -0.605047 -0.052614 0.052614
v -0.412379 0.052614 0.052614
v -0.412379 -0.052614 0.052614
v -0.585047 0.047353 0.006909
v -0.585047 0.047353 -0.006909
v -0.432379 0.047353 0.006909
v -0.432379 0.047353 -0.006909
v -0.585047 -0.047353 0.006909
v -0.585047 -0.047353 -0.006909
v -0.432379 -0.047353 0.006909
v -0.432379 -0.047353 -0.006909
v -0.585047 -0.006909 -0.047353
v -0.585047 0.006909 -0.047353
v -0.432379 -0.006909 -0.047353
v -0.432379 0.006909 -0.047353
v -0.585047 0.006909 0.047353
v -0.585047 -0.006909 0.047353
v -0.432379 0.006909 0.047353
v -0.432379 -0.006909 0.047353
vt 0.297852 0.051758
vt 0.302734 0.051758
vt 0.302734 0.146484
vt 0.275391 0.254883
vt 0.275391 0.266602
vt 0.270508 0.266602
vt 0.265625 0.266602
vt 0.265625 0.254883
vt 0.292969 0.146484
vt 0.288086 0.146484
vt 0.288086 0.051758
vt 0.202148 0.280273
vt 0.214844 0.280273
vt 0.256836 0.292969
vt 0.202148 0.184570
vt 0.159180 0.171875
vt 0.256836 0.171875
vt 0.159180 0.292969
vt 0.214844 0.184570
vt 0.103516 0.280273
vt 0.117188 0.280273
vt 0.103516 0.184570
vt 0.061523 0.171875
vt 0.117188 0.184570
vt 0.061523 0.292969
vt 0.103516 0.159180
vt 0.117188 0.159180
vt 0.103516 0.063477
vt 0.061523 0.051758
vt 0.159180 0.051758
vt 0.117188 0.063477
vt 0.202148 0.159180
vt 0.214844 0.159180
vt 0.202148 0.063477
vt 0.256836 0.051758
vt 0.214844 0.063477
vt 0.256836 0.146484
vt 0.270508 0.051758
vt 0.270508 0.242188
vt 0.270508 0.146484
vt 0.283203 0.146484
vt 0.292969 0.051758
vt 0.297852 0.146484
vt 0.285156 0.242188
vt 0.285156 0.254883
vt 0.280273 0.254883
vt 0.297852 0.242188
vt 0.292969 0.242188
vt 0.280273 0.242188
vt 0.260742 0.254883
vt 0.260742 0.242188
vt 0.283203 0.051758
vt 0.256836 0.242188
vt 0.260742 0.266602
vt 0.302734 0.242188
vt 0.270508 0.254883
vt 0.265625 0.242188
vt 0.275391 0.242188
vt 0.288086 0.242188
vt 0.283203 0.242188
vn 0.000000 1.000000 0.000000
vn -1.000000 -0.000000 0.000000
vn 1.000000 0.000000 0.000000
vn 0.000000 0.000000 -1.000000
vn -0.000000 -1.000000 -0.000000
vn -0.000000 -0.000000 1.000000
s off
f 19/1/1 40/2/1 38/3/1
f 12/4/2 7/5/2 35/6/2
f 13/6/3 30/7/3 29/8/3
f 2/9/4 29/10/4 31/11/4
f 1/12/1 4/13/1 14/14/1
f 5/15/1 23/16/1 16/17/1
f 1/12/1 21/18/1 23/16/1
f 6/19/1 16/17/1 14/14/1
f 10/20/4 3/21/4 18/18/4
f 12/22/4 16/23/4 20/16/4
f 7/24/4 20/16/4 18/18/4
f 10/20/4 14/25/4 16/23/4
f 13/26/5 2/27/5 22/16/5
f 15/28/5 20/29/5 24/30/5
f 8/31/5 24/30/5 22/16/5
f 13/26/5 18/23/5 20/29/5
f 17/32/6 9/33/6 21/17/6
f 19/34/6 24/30/6 23/35/6
f 11/36/6 23/35/6 21/17/6
f 17/32/6 22/16/6 24/30/6
f 30/37/5 32/35/5 31/38/5
f 25/39/1 27/40/1 28/41/1
f 4/42/6 26/1/6 28/43/6
f 5/44/2 6/45/2 28/46/2
f 15/47/6 32/48/6 30/9/6
f 15/49/2 8/46/2 31/4/2
f 5/10/4 27/9/4 25/48/4
f 1/8/3 25/50/3 26/51/3
f 38/52/6 40/41/6 39/40/6
f 34/53/4 36/37/4 35/40/4
f 19/54/2 11/50/2 39/8/2
f 3/55/1 33/47/1 35/43/1
f 10/56/3 34/8/3 33/57/3
f 9/10/5 37/41/5 39/52/5
f 17/39/3 38/58/3 37/4/3
f 12/41/5 36/10/5 34/59/5
f 17/43/1 19/1/1 38/3/1
f 36/56/2 12/4/2 35/6/2
f 2/56/3 13/6/3 29/8/3
f 8/42/4 2/9/4 31/11/4
f 21/18/1 1/12/1 14/14/1
f 6/19/1 5/15/1 16/17/1
f 5/15/1 1/12/1 23/16/1
f 4/13/1 6/19/1 14/14/1
f 14/25/4 10/20/4 18/18/4
f 7/24/4 12/22/4 20/16/4
f 3/21/4 7/24/4 18/18/4
f 12/22/4 10/20/4 16/23/4
f 18/23/5 13/26/5 22/16/5
f 8/31/5 15/28/5 24/30/5
f 2/27/5 8/31/5 22/16/5
f 15/28/5 13/26/5 20/29/5
f 22/16/6 17/32/6 21/17/6
f 11/36/6 19/34/6 23/35/6
f 9/33/6 11/36/6 21/17/6
f 19/34/6 17/32/6 24/30/6
f 29/40/5 30/37/5 31/38/5
f 26/60/1 25/39/1 28/41/1
f 6/9/6 4/42/6 28/43/6
f 27/49/2 5/44/2 28/46/2
f 13/43/6 15/47/6 30/9/6
f 32/58/2 15/49/2 31/4/2
f 1/59/4 5/10/4 25/48/4
f 4/57/3 1/8/3 26/51/3
f 37/38/6 38/52/6 39/40/6
f 33/39/4 34/53/4 35/40/4
f 40/7/2 19/54/2 39/8/2
f 7/3/1 3/55/1 35/43/1
f 3/39/3 10/56/3 33/57/3
f 11/11/5 9/10/5 39/52/5
f 9/56/3 17/39/3 37/4/3
f 10/60/5 12/41/5 34/59/5
